name D:\school\WTK\thesis\model\3dpredictsim\Results\Batchsim_tmt_linear_v2\Pog_s1_tmt_bCst_d05_k2000_ig24_pas.mot
datacolumns 128
datarows 4
range 0.00000000 0.03217047
endheader
time	pelvis_tilt	pelvis_list	pelvis_rotation	pelvis_tx	pelvis_ty	pelvis_tz	hip_flexion_l	hip_adduction_l	hip_rotation_l	hip_flexion_r	hip_adduction_r	hip_rotation_r	knee_angle_l	knee_angle_r	ankle_angle_l	ankle_angle_r	subtalar_angle_l	subtalar_angle_r	tmt_angle_l	tmt_angle_r	mtp_angle_l	mtp_angle_r	lumbar_extension	lumbar_bending	lumbar_rotation	arm_flex_l	arm_add_l	arm_rot_l	arm_flex_r	arm_add_r	arm_rot_r	elbow_flex_l	elbow_flex_r	pro_sup_l	pro_sup_r	glut_med1_l/activation	glut_med2_l/activation	glut_med3_l/activation	glut_min1_l/activation	glut_min2_l/activation	glut_min3_l/activation	semimem_l/activation	semiten_l/activation	bifemlh_l/activation	bifemsh_l/activation	sar_l/activation	add_long_l/activation	add_brev_l/activation	add_mag1_l/activation	add_mag2_l/activation	add_mag3_l/activation	tfl_l/activation	pect_l/activation	grac_l/activation	glut_max1_l/activation	glut_max2_l/activation	glut_max3_l/activation	iliacus_l/activation	psoas_l/activation	quad_fem_l/activation	gem_l/activation	peri_l/activation	rect_fem_l/activation	vas_med_l/activation	vas_int_l/activation	vas_lat_l/activation	med_gas_l/activation	lat_gas_l/activation	soleus_l/activation	tib_post_l/activation	flex_dig_l/activation	flex_hal_l/activation	tib_ant_l/activation	per_brev_l/activation	per_long_l/activation	per_tert_l/activation	ext_dig_l/activation	ext_hal_l/activation	ercspn_l/activation	intobl_l/activation	extobl_l/activation	glut_med1_r/activation	glut_med2_r/activation	glut_med3_r/activation	glut_min1_r/activation	glut_min2_r/activation	glut_min3_r/activation	semimem_r/activation	semiten_r/activation	bifemlh_r/activation	bifemsh_r/activation	sar_r/activation	add_long_r/activation	add_brev_r/activation	add_mag1_r/activation	add_mag2_r/activation	add_mag3_r/activation	tfl_r/activation	pect_r/activation	grac_r/activation	glut_max1_r/activation	glut_max2_r/activation	glut_max3_r/activation	iliacus_r/activation	psoas_r/activation	quad_fem_r/activation	gem_r/activation	peri_r/activation	rect_fem_r/activation	vas_med_r/activation	vas_int_r/activation	vas_lat_r/activation	med_gas_r/activation	lat_gas_r/activation	soleus_r/activation	tib_post_r/activation	flex_dig_r/activation	flex_hal_r/activation	tib_ant_r/activation	per_brev_r/activation	per_long_r/activation	per_tert_r/activation	ext_dig_r/activation	ext_hal_r/activation	ercspn_r/activation	intobl_r/activation	extobl_r/activation	
          0.00000000	         -2.92023683	          0.85860885	          4.89928007	          0.00000000	          0.87292475	         -0.00214876	        -18.16550280	          1.29082657	          5.90054117	         25.92974082	         -0.24715494	         -3.12933040	         -4.97873036	         -6.99698156	         -9.76597075	          5.71151612	          6.37810159	          3.47706359	          0.54712313	          0.01762610	         28.05056814	         -0.11020515	          0.60701892	         -3.16180625	         -1.63891304	          3.43223016	        -13.47024503	         11.50957252	         -8.99685439	        -13.45112125	         11.96204095	         26.40705986	         17.25721374	         86.51662706	         86.51662706	          0.26822238	          0.08865734	          0.07753703	          0.24997169	          0.15108190	          0.09020922	          0.05000116	          0.05000020	          0.05000017	          0.05000018	          0.09652446	          0.05760026	          0.05000019	          0.05000034	          0.05000128	          0.05000111	          0.21887273	          0.05000067	          0.05000043	          0.05000700	          0.05000359	          0.05000221	          0.37055364	          0.66273844	          0.05000039	          0.05001576	          0.05893664	          0.30224536	          0.06069100	          0.05820584	          0.06691334	          0.18775391	          0.27806627	          0.21627276	          0.22662107	          0.20315158	          0.27875907	          0.05000002	          0.08719980	          0.14403527	          0.05000020	          0.05000005	          0.05000015	          0.05000000	          0.05000002	          0.05000002	          0.06626727	          0.07933501	          0.05058487	          0.05000043	          0.05000076	          0.05002911	          0.06946934	          0.05893742	          0.12794204	          0.05000134	          0.05000045	          0.05000040	          0.05388647	          0.10259704	          0.13695783	          0.15025549	          0.05000166	          0.05000079	          0.05086533	          0.05893751	          0.11579930	          0.16526652	          0.05000006	          0.05000009	          0.06291759	          0.05893639	          0.05000143	          0.05000039	          0.05000143	          0.05000192	          0.05000094	          0.05000010	          0.05000027	          0.05890130	          0.05794991	          0.05893635	          0.05893628	          0.47875340	          0.30752931	          0.19873271	          0.22707267	          0.47993610	          0.27178413	          0.05051032	          0.14157697	          0.14241063	
          0.01072349	         -2.90431143	          0.92094018	          5.05685113	          0.01673166	          0.87149958	         -0.00201158	        -18.02930701	          1.15669755	          5.67210986	         25.49259660	         -0.11616452	         -2.89997927	         -7.00980128	         -6.85752281	        -10.46075863	          5.21007941	          7.46068566	          3.01316485	          0.50651895	          0.01796421	         28.88587577	         -0.08864353	          0.81660899	         -2.99559130	         -1.69735256	          3.23729193	        -13.49768393	         11.82642839	        -10.17167108	        -13.44970832	         11.76401719	         27.23878312	         17.27930134	         86.51662706	         86.51662706	          0.22755312	          0.07521464	          0.06578050	          0.21206971	          0.12817406	          0.07653124	          0.05000052	          0.05000011	          0.05000009	          0.05000019	          0.08188913	          0.14281320	          0.13442395	          0.05003964	          0.05000216	          0.05000029	          0.18568609	          0.12536746	          0.05893129	          0.05000110	          0.05000067	          0.05000068	          0.31436828	          0.60074256	          0.06946921	          0.05000065	          0.05000051	          0.25641725	          0.13027265	          0.15795276	          0.09521613	          0.15928562	          0.23590434	          0.19081626	          0.19225980	          0.17234916	          0.23649236	          0.05000001	          0.07397816	          0.13921241	          0.05000008	          0.05000002	          0.05000010	          0.05000014	          0.05050351	          0.05023686	          0.10856233	          0.06730608	          0.28368334	          0.05893641	          0.05893634	          0.05000376	          0.05893630	          0.05000109	          0.11790601	          0.05000020	          0.05000128	          0.09044649	          0.11898943	          0.17976500	          0.19998690	          0.18160172	          0.05000016	          0.06952464	          0.05000245	          0.05000119	          0.09824132	          0.21591241	          0.05893623	          0.05000096	          0.05337772	          0.05000048	          0.12039462	          0.06235024	          0.23121479	          0.23666041	          0.19671507	          0.05000000	          0.05000001	          0.05000000	          0.05000000	          0.05000015	          0.05000010	          0.62849643	          0.33092560	          0.16860113	          0.54928688	          0.57044731	          0.38055092	          0.05000004	          0.12011028	          0.12081753	
          0.02144698	         -2.88121498	          0.96665300	          5.18910425	          0.03374438	          0.86998161	         -0.00187430	        -17.78252331	          1.01291050	          5.43833823	         24.97259587	          0.00900452	         -2.63323690	         -9.25497352	         -7.35491607	        -11.15529389	          4.49896528	          8.53956633	          2.54729799	          0.44738875	          0.01475120	         29.33159536	         -0.05105705	          1.04736489	         -2.79667311	         -1.74788399	          2.97303255	        -13.53161385	         12.11206822	        -11.35959157	        -13.45580946	         11.60364834	         28.06153323	         17.30864310	         86.51662706	         86.51662706	          0.19305029	          0.06381020	          0.05893617	          0.17991464	          0.10873964	          0.06492719	          0.05000165	          0.05000016	          0.05000027	          0.05000005	          0.06947276	          0.18294346	          0.28421003	          0.10411262	          0.05893118	          0.10789743	          0.15753138	          0.10635878	          0.05000047	          0.05005325	          0.05166849	          0.05893532	          0.26670203	          0.52160814	          0.05893619	          0.05893611	          0.05000080	          0.21753785	          0.13410507	          0.13410551	          0.13410478	          0.13513385	          0.20013522	          0.16188363	          0.16310834	          0.14621676	          0.20063416	          0.05000003	          0.06276124	          0.14361854	          0.05000008	          0.05000013	          0.05000016	          0.05327895	          0.06397434	          0.06374719	          0.16355453	          0.06277170	          0.24067042	          0.05000019	          0.05000019	          0.05000037	          0.05000009	          0.05000009	          0.10002847	          0.05000004	          0.05000017	          0.07673255	          0.10094765	          0.20817844	          0.23499568	          0.18028318	          0.05000150	          0.05898330	          0.05000064	          0.13418616	          0.15133005	          0.20170889	          0.05000008	          0.05000014	          0.17108772	          0.05780999	          0.10213979	          0.06819238	          0.21911830	          0.23613722	          0.17469872	          0.05272502	          0.05893641	          0.05000022	          0.05893590	          0.05893865	          0.05893685	          0.53320030	          0.35110822	          0.18308208	          0.46600098	          0.48395297	          0.32284969	          0.05000001	          0.10189849	          0.10249851	
          0.03217047	         -2.85326359	          0.99551949	          5.29495665	          0.05085768	          0.86835249	         -0.00174614	        -17.42860031	          0.86510028	          5.20053034	         24.35511123	          0.11189415	         -2.34118016	        -11.68711533	         -8.23595355	        -11.78095976	          3.93770468	          9.57867277	          2.04367812	          0.36588431	         -0.00583204	         29.19411480	         -0.19011350	          1.28196465	         -2.56779238	         -1.78820460	          2.66747896	        -13.56992431	         12.36767260	        -12.52016096	        -13.47359600	         11.52162660	         28.87350373	         17.31358796	         86.51662706	         86.51662706	          0.19639421	          0.05413496	          0.05000002	          0.15265342	          0.09225197	          0.05508261	          0.05000300	          0.05000025	          0.05000019	          0.05000023	          0.05893922	          0.18993724	          0.29472156	          0.08832674	          0.05000173	          0.09153771	          0.13364566	          0.09023271	          0.05000080	          0.05000056	          0.05000039	          0.05000046	          0.22626320	          0.47854213	          0.05000006	          0.05000020	          0.05000006	          0.18455355	          0.11377135	          0.11377171	          0.11377109	          0.11464411	          0.16978961	          0.13733794	          0.13837697	          0.12404666	          0.17021298	          0.05656553	          0.11818218	          0.12184381	          0.07428461	          0.15999662	          0.05001470	          0.06862211	          0.05427420	          0.05408192	          0.27732555	          0.25808550	          0.38925361	          0.25360441	          0.19796104	          0.22691271	          0.06945976	          0.08591183	          0.09022657	          0.06947001	          0.05893609	          0.06509797	          0.08564144	          0.17661333	          0.19936451	          0.18666869	          0.05000026	          0.05004075	          0.05014111	          0.20316679	          0.19405956	          0.20482541	          0.05000088	          0.05000036	          0.14514649	          0.05034749	          0.19576518	          0.05785269	          0.18589440	          0.20033281	          0.14820996	          0.05000011	          0.05000025	          0.05000004	          0.05000000	          0.05000214	          0.05000063	          0.58302637	          0.29787131	          0.15532218	          0.66717589	          0.58876775	          0.35547905	          0.05000002	          0.08644808	          0.08695711	
